<svg width="74" height="74" viewBox="0 0 74 74" fill="none" xmlns="http://www.w3.org/2000/svg">
<path d="M74 37C74 57.4395 57.4395 74 37 74C16.5605 74 0 57.4395 0 37C0 16.5605 16.5605 0 37 0C57.4395 0 74 16.5605 74 37ZM52.5758 32.6883L41.7742 43.9524V16.7097C41.7742 14.7254 40.1778 13.129 38.1936 13.129H35.8065C33.8222 13.129 32.2258 14.7254 32.2258 16.7097V43.9524L21.4242 32.6883C20.0367 31.2411 17.7242 31.2113 16.3069 32.6286L14.6806 34.2698C13.2782 35.6722 13.2782 37.9399 14.6806 39.3274L34.4637 59.1254C35.8661 60.5278 38.1339 60.5278 39.5214 59.1254L59.3194 39.3274C60.7218 37.925 60.7218 35.6573 59.3194 34.2698L57.6931 32.6286C56.2758 31.2113 53.9633 31.2411 52.5758 32.6883Z" fill="#D86C00"/>
</svg>
