<svg width="100" height="57" viewBox="0 0 100 57" fill="none" xmlns="http://www.w3.org/2000/svg">
<path d="M50.0816 0L0 28.5L50 57L100 28.5L50.0816 0ZM75.6117 32.1229L71.7781 33.6525V33.0085C71.7781 31.7203 71.2072 30.3517 70.5546 29.8686C68.6786 28.5805 63.0506 28.822 55.6281 30.4322L52.1207 31.2373L51.7129 31.8009C50.7341 33.089 50.3263 34.9407 50.6525 36.6314C50.9788 38.2415 51.9576 39.5297 53.3442 40.3347L53.9967 40.7373L51.2235 42.3475L50.9788 42.267C46.6558 39.9322 45.9217 35.8263 47.0636 32.5254C39.6411 34.3771 33.1974 34.4576 29.3638 32.6059C27.0799 31.5593 25.8564 30.0297 24.6329 28.0169L24.3883 27.6144L28.0587 25.9237L28.2219 26.4068C28.5481 27.4534 30.261 29.1441 31.4845 29.7076C34.5025 31.1568 40.2936 30.9958 46.7374 29.3856L49.429 28.822L50.1631 27.7754C51.3866 26.2458 51.7945 24.7966 51.4682 23.589C51.0604 22.2203 49.6737 21.0127 47.3899 20.1271L46.5742 19.8051L50.1631 17.4703L50.4078 17.5509C53.5073 18.7585 55.3834 20.3686 55.9543 22.3814C56.4437 23.9915 56.0359 25.7627 54.894 27.6949C59.5432 26.7288 63.4584 26.2458 66.721 26.2458C70.0653 26.2458 72.1044 27.0509 73.491 27.7754C75.2855 28.7415 75.8564 31.1568 75.6933 32.2839L75.6117 32.1229Z" fill="#D86C00"/>
</svg>
