<svg width="41" height="42" viewBox="0 0 41 42" fill="none" xmlns="http://www.w3.org/2000/svg">
<g clip-path="url(#clip0)">
<path d="M36.6071 0.5H4.39286C1.96763 0.5 0 2.46763 0 4.89286V37.1071C0 39.5324 1.96763 41.5 4.39286 41.5H16.9491V27.5618H11.1835V21H16.9491V16.0031C16.9491 10.3107 20.3353 7.17165 25.5243 7.17165C28.0045 7.17165 30.6036 7.61094 30.6036 7.61094V13.1935H27.7391C24.9203 13.1935 24.0417 14.9415 24.0417 16.7353V21H30.3382L29.3315 27.5618H24.0417V41.5H36.6071C39.0324 41.5 41 39.5324 41 37.1071V4.89286C41 2.46763 39.0324 0.5 36.6071 0.5Z" fill="#163240"/>
<g clip-path="url(#clip1)">
<path d="M20.1855 -100.212C-46.676 -100.212 -100.607 -46.2811 -100.607 20.5804C-100.607 87.4419 -46.676 141.373 20.1855 141.373C87.047 141.373 140.978 87.4419 140.978 20.5804C140.978 -46.2811 87.047 -100.212 20.1855 -100.212ZM20.1855 99.1112C-23.0222 99.1112 -58.3452 63.8932 -58.3452 20.5804C-58.3452 -22.7324 -23.1273 -57.9504 20.1855 -57.9504C63.4983 -57.9504 98.7163 -22.7324 98.7163 20.5804C98.7163 63.8932 63.3932 99.1112 20.1855 99.1112ZM174.093 -105.153C174.093 -89.4888 161.478 -76.9786 145.919 -76.9786C130.255 -76.9786 117.744 -89.5939 117.744 -105.153C117.744 -120.712 130.36 -133.327 145.919 -133.327C161.478 -133.327 174.093 -120.712 174.093 -105.153ZM254.096 -76.558C252.309 -114.299 243.688 -147.73 216.039 -175.273C188.496 -202.817 155.065 -211.438 117.324 -213.33C78.4265 -215.538 -38.1606 -215.538 -77.0581 -213.33C-114.694 -211.543 -148.125 -202.922 -175.773 -175.379C-203.422 -147.835 -211.938 -114.404 -213.83 -76.6632C-216.038 -37.7657 -216.038 78.8214 -213.83 117.719C-212.043 155.46 -203.422 188.891 -175.773 216.434C-148.125 243.978 -114.799 252.598 -77.0581 254.491C-38.1606 256.698 78.4265 256.698 117.324 254.491C155.065 252.703 188.496 244.083 216.039 216.434C243.583 188.891 252.203 155.46 254.096 117.719C256.303 78.8214 256.303 -37.6606 254.096 -76.558ZM203.844 159.455C195.644 180.06 179.77 195.934 159.06 204.239C128.047 216.539 54.4573 213.701 20.1855 213.701C-14.0863 213.701 -87.7811 216.434 -118.689 204.239C-139.294 196.039 -155.168 180.165 -163.473 159.455C-175.773 128.442 -172.935 54.8522 -172.935 20.5804C-172.935 -13.6914 -175.668 -87.3863 -163.473 -118.294C-155.273 -138.899 -139.399 -154.773 -118.689 -163.079C-87.676 -175.379 -14.0863 -172.54 20.1855 -172.54C54.4573 -172.54 128.152 -175.273 159.06 -163.079C179.665 -154.879 195.539 -139.004 203.844 -118.294C216.144 -87.2811 213.306 -13.6914 213.306 20.5804C213.306 54.8522 216.144 128.547 203.844 159.455Z" fill="black"/>
</g>
</g>
<defs>
<clipPath id="clip0">
<rect y="0.5" width="41" height="41" fill="white"/>
</clipPath>
<clipPath id="clip1">
<rect x="-215.513" y="-215.013" width="471.185" height="471.079" fill="white"/>
</clipPath>
</defs>
</svg>
