<svg id="Слой_1" data-name="Слой 1" xmlns="http://www.w3.org/2000/svg" viewBox="0 0 122.64 70.81"><defs><style>.cls-1{fill:#1f4b59;}</style></defs><title>logo</title><path class="cls-1" d="M61.32,0,0,35.4,61.32,70.81,122.64,35.4ZM92.67,39.89,88,41.79V41a5.11,5.11,0,0,0-1.55-3.92c-2.31-1.55-9.17-1.3-18.33.67l-4.35,1-.47.65a7.63,7.63,0,0,0-1.26,6A6.78,6.78,0,0,0,65.35,50l.81.45-3.43,2-.27-.14a9.73,9.73,0,0,1-4.79-12.15c-9.12,2.32-17,2.36-21.65.08-2.79-1.3-4.3-3.16-5.83-5.74l-.3-.5,4.46-2.15.19.57a9.58,9.58,0,0,0,4,4.13c3.7,1.76,10.85,1.59,18.67-.44l3.33-.74.93-1.29c1.49-1.92,2-3.66,1.61-5.19-.47-1.73-2.21-3.23-5-4.33l-1-.38,4.4-2.92.26.1c3.77,1.48,6,3.49,6.77,6,.58,2,.13,4.2-1.33,6.57a72.69,72.69,0,0,1,14.51-1.79h0A17,17,0,0,1,90,34c2.16,1.16,2.88,4.2,2.68,5.58Z"/></svg>