<svg id="Слой_1" data-name="Слой 1" xmlns="http://www.w3.org/2000/svg" viewBox="0 0 61.32 106.21"><defs><style>.cls-1{fill:#1f4b59;}</style></defs><title>logo</title><path class="cls-1" d="M0,0V70.81l61.32,35.4V35.4ZM53.5,75.14a4.57,4.57,0,0,1-3.8,2,7.33,7.33,0,0,1-3.5-1,13.33,13.33,0,0,1-5.35-6.21c-3.37-7.27-3-18-2.44-24-3.85,1.49-4.8,14.31-4.82,18.87v2.74l-2.15-1.06a9.21,9.21,0,0,1-3.88-4.31C24.48,56,24.68,44.8,25.12,38.36c-1.48.5-2.65,2.37-3.4,3.92a30.73,30.73,0,0,0-2.13,6.45V59.27L15.47,57V27.11l4.13,2.34v6.16c2.29-3.09,5-3.83,8.06-2.12l2.15,1.22-.29,2.65c-.55,5-.88,14.13.24,19.71.53-6,2-14.25,6-16.41,1.55-.84,3.35-.7,5.34.43l2.25,1.28-.4,2.68c-.65,4.31-1.69,16.87,1.23,23.15A5.83,5.83,0,0,0,46.52,71c1.64.9,2.75.79,3.59-.37l.31-.42,3.24,4.7Z"/></svg>