<svg id="Слой_1" data-name="Слой 1" xmlns="http://www.w3.org/2000/svg" viewBox="0 0 61.32 106.21"><defs><style>.cls-1{fill:#1f4b59;}</style></defs><title>logo</title><path class="cls-1" d="M0,35.4v70.81l61.32-35.4V0ZM36.51,69.68a12.57,12.57,0,0,1-7.14,5c-7.29,2-9.46-3.89-9.59-7.28l4.95-1.75c0,.84.47,5.06,4.64,3.83a6.21,6.21,0,0,0,3.47-2.25,7.2,7.2,0,0,0,1.09-4V45.27c-.63.5-1.33,1.1-1.9,1.57-2,1.72-4.8,4-7.68,5.08-2.52.92-5.12.91-7.38-1.21l3.93-4.55c2.23,2.09,4.59.54,9.1-3.31,2.89-2.5,6.49-5.65,9-3.55l-.08.11V61.32A14.12,14.12,0,0,1,36.51,69.68Zm-.1-35.94c-2,.84-3.69-.22-3.69-2.39a6.58,6.58,0,0,1,3.69-5.53c2-.9,3.69.17,3.69,2.38A6.46,6.46,0,0,1,36.41,33.74Z"/></svg>