<svg width="51" height="87" viewBox="0 0 51 87" fill="none" xmlns="http://www.w3.org/2000/svg">
<path d="M0 0V57.8107L50.0537 86.7161V28.9054L0 0ZM43.6847 61.3218C42.8681 62.465 41.8066 62.9549 40.5818 62.9549C39.6837 62.9549 38.7855 62.71 37.724 62.1384C35.9276 61.1585 34.4578 59.3622 33.3963 57.0759C30.6201 51.1151 30.9467 42.3782 31.4366 37.479C28.2521 38.7038 27.5173 49.1555 27.5173 52.9115V55.1162L25.8025 54.218C24.5777 53.6464 23.4346 52.4216 22.6181 50.7069C20.0868 45.6444 20.2501 36.5808 20.6584 31.2733C19.4336 31.6816 18.4537 33.233 17.8821 34.4578C16.8206 36.5808 16.2491 39.0304 16.1674 39.7653V48.3389L12.8196 46.4609V22.1281L16.1674 24.0062V29.0687C18.0454 26.5374 20.3317 25.9658 22.7813 27.354L24.5777 28.3338L24.3328 30.4568C23.8429 34.5395 23.5979 41.9699 24.4961 46.5425C24.9043 41.6433 26.1291 34.8661 29.3953 33.1514C30.7017 32.4981 32.1715 32.5798 33.7229 33.478L35.5193 34.5395L35.1927 36.7441C34.7028 40.2552 33.8046 50.5436 36.1726 55.6877C36.6625 56.8309 37.3157 57.4841 38.1322 57.974C39.4387 58.7089 40.3369 58.6273 41.0718 57.6474L41.3167 57.3208L43.9296 61.1585L43.6847 61.3218Z" fill="#D86C00"/>
</svg>
