<svg width="41" height="41" viewBox="0 0 41 41" fill="none" xmlns="http://www.w3.org/2000/svg">
<path d="M36.6071 0H4.39286C1.96763 0 0 1.96763 0 4.39286V36.6071C0 39.0324 1.96763 41 4.39286 41H36.6071C39.0324 41 41 39.0324 41 36.6071V4.39286C41 1.96763 39.0324 0 36.6071 0ZM8.60268 35.1429C7.96205 35.1429 7.40379 34.6944 7.26652 34.0812L5.89375 28.1326C5.74732 27.4828 6.07679 26.8239 6.68996 26.5585L13.0962 23.8129C13.6545 23.575 14.3134 23.7306 14.6978 24.2065L17.5348 27.675C22.01 25.5701 25.6158 21.9185 27.675 17.5348L24.2065 14.6978C23.7306 14.3134 23.575 13.6545 23.8129 13.0962L26.5585 6.68996C26.8239 6.07679 27.4828 5.74732 28.1326 5.89375L34.0812 7.26652C34.7036 7.41295 35.1429 7.96205 35.1429 8.60268C35.1429 23.273 23.2547 35.1429 8.60268 35.1429Z" fill="#163240"/>
</svg>
