<svg width="50" height="87" viewBox="0 0 50 87" fill="none" xmlns="http://www.w3.org/2000/svg">
<path d="M0 29V87L50 58V0L0 29ZM29.7716 57.0989C28.7928 58.4915 26.9984 60.2938 23.9804 61.1949C18.0261 62.8333 16.2316 58 16.1501 55.2147L20.2284 53.822C20.2284 54.4774 20.6362 58 23.9804 56.935C25.2855 56.5254 26.1827 55.952 26.8352 55.0508C27.814 53.5763 27.7325 51.774 27.7325 51.774V51.6102V37.1102C27.2431 37.5198 26.6721 38.0113 26.1827 38.4209C24.5514 39.8136 22.2675 41.6977 19.9021 42.5989C17.863 43.3362 15.7423 43.3362 13.8662 41.6158L17.0473 37.8475C18.8418 39.5678 20.7993 38.2571 24.4698 35.1441C26.8352 33.096 29.7716 30.4746 31.8108 32.2768L31.7292 32.3588V50.2994C31.7292 50.9548 31.8108 54.0678 29.7716 57.0989ZM29.6901 27.6073C28.0587 28.2627 26.6721 27.4435 26.6721 25.6412C26.6721 23.839 28.0587 21.8729 29.6901 21.1356C31.3214 20.3983 32.708 21.2994 32.708 23.1017C32.708 24.904 31.4029 26.952 29.6901 27.6073Z" fill="#D86C00"/>
</svg>
