<svg width="41" height="42" viewBox="0 0 41 42" fill="none" xmlns="http://www.w3.org/2000/svg">
<path d="M20.5 16.1221C17.8002 16.1221 15.6221 18.3094 15.6221 21.0092C15.6221 23.7089 17.8094 25.8871 20.5092 25.8871C23.2089 25.8871 25.3871 23.6998 25.3871 21.0092C25.3779 18.3002 23.1998 16.1221 20.5 16.1221ZM31.9123 12.3699C31.4089 11.0978 30.4022 10.0911 29.1301 9.58772C27.2083 8.82812 22.6324 9.00201 20.5 9.00201C18.3676 9.00201 13.8009 8.82812 11.8699 9.58772C10.5978 10.0911 9.59107 11.0978 9.08772 12.3699C8.32812 14.2917 8.50201 18.8768 8.50201 21C8.50201 23.1232 8.33728 27.7083 9.09687 29.6301C9.60022 30.9022 10.6069 31.9089 11.879 32.4123C13.8009 33.1719 18.3768 32.998 20.5092 32.998C22.6415 32.998 27.2083 33.1719 29.1393 32.4123C30.4114 31.9089 31.4181 30.9022 31.9214 29.6301C32.6902 27.7083 32.5071 23.1232 32.5071 21C32.5071 18.8768 32.681 14.2917 31.9123 12.3699ZM20.5 28.5045C16.3542 28.5045 12.9955 25.1458 12.9955 21C12.9955 16.8542 16.3542 13.4955 20.5 13.4955C24.6458 13.4955 28.0045 16.8542 28.0045 21C28.0136 25.1366 24.6549 28.4953 20.5183 28.5045C20.5092 28.5045 20.5092 28.5045 20.5 28.5045ZM28.3156 14.9324C27.3455 14.9324 26.5676 14.1453 26.5676 13.1844C26.5676 12.2234 27.3547 11.4364 28.3156 11.4364C29.2857 11.4364 30.0636 12.2234 30.0636 13.1844C30.0636 14.1453 29.2857 14.9324 28.3248 14.9415C28.3248 14.9324 28.3156 14.9324 28.3156 14.9324ZM36.6071 0.5H4.39286C1.96763 0.5 0 2.46763 0 4.89286V37.1071C0 39.5324 1.96763 41.5 4.39286 41.5H36.6071C39.0324 41.5 41 39.5324 41 37.1071V4.89286C41 2.46763 39.0324 0.5 36.6071 0.5ZM35.0422 27.0402C34.9232 29.383 34.3924 31.4605 32.6719 33.1719C30.9513 34.8833 28.883 35.4232 26.5402 35.5422C24.1241 35.6795 16.8759 35.6795 14.4598 35.5422C12.117 35.4232 10.0395 34.8924 8.32812 33.1719C6.61674 31.4513 6.07679 29.383 5.96696 27.0402C5.82969 24.6241 5.82969 17.3759 5.96696 14.9598C6.08594 12.617 6.61674 10.5395 8.32812 8.82812C10.0395 7.11674 12.1261 6.57679 14.4598 6.46696C16.8759 6.32969 24.1241 6.32969 26.5402 6.46696C28.883 6.58594 30.9605 7.12589 32.6719 8.82812C34.3833 10.5304 34.9232 12.617 35.0422 14.9598C35.1795 17.3759 35.1795 24.6241 35.0422 27.0402Z" fill="#163240"/>
</svg>
