<svg id="Слой_1" data-name="Слой 1" xmlns="http://www.w3.org/2000/svg" viewBox="0 0 128.73 146.28"><defs><style>.cls-1{fill:#fbede0;}</style></defs><title>logo-cream</title><path class="cls-1" d="M67.41,0V70.81l61.32,35.4V35.4Zm53.5,75.14a4.57,4.57,0,0,1-3.8,2,7.37,7.37,0,0,1-3.51-1,13.31,13.31,0,0,1-5.34-6.21c-3.37-7.27-3-18-2.44-24C102,47.39,101,60.21,101,64.77v2.74l-2.14-1.06A9.16,9.16,0,0,1,95,62.14C91.89,56,92.09,44.8,92.53,38.36c-1.48.5-2.66,2.37-3.41,3.92A30.52,30.52,0,0,0,87,48.73V59.27L82.88,57V27.11L87,29.45v6.16c2.29-3.09,5.06-3.83,8.07-2.12l2.15,1.22-.29,2.65c-.56,5-.89,14.13.23,19.71.53-6,2-14.25,6-16.41,1.55-.84,3.35-.7,5.35.43l2.24,1.28-.4,2.68c-.65,4.31-1.69,16.87,1.23,23.15A5.79,5.79,0,0,0,113.93,71c1.64.9,2.74.79,3.59-.37l.31-.42,3.23,4.7Z"/><path class="cls-1" d="M64.35,75.48,3,110.88l61.32,35.4,61.32-35.4ZM95.7,115.36,91,117.26v-.79a5.09,5.09,0,0,0-1.54-3.92c-2.31-1.55-9.17-1.31-18.34.66l-4.34,1-.47.66a7.55,7.55,0,0,0-1.26,6,6.77,6.77,0,0,0,3.34,4.61l.82.45-3.44,2-.26-.15a9.7,9.7,0,0,1-4.79-12.14c-9.12,2.32-17,2.35-21.65.07-2.8-1.3-4.3-3.15-5.83-5.73l-.3-.51,4.45-2.14.2.57a9.58,9.58,0,0,0,4,4.13c3.69,1.75,10.84,1.59,18.67-.44l3.32-.75.93-1.29c1.5-1.91,2-3.65,1.61-5.19-.47-1.72-2.2-3.22-5-4.33l-1-.37,4.41-2.92.26.1c3.77,1.48,6,3.49,6.77,6,.58,2,.13,4.21-1.34,6.57a74.37,74.37,0,0,1,14.52-1.79h0a17,17,0,0,1,8.26,1.9c2.17,1.15,2.89,4.2,2.68,5.58Z"/><path class="cls-1" d="M0,35.4v70.81l61.32-35.4V0ZM36.51,69.68a12.57,12.57,0,0,1-7.14,5c-7.29,2-9.46-3.89-9.59-7.28l4.95-1.75c0,.84.47,5.06,4.64,3.83a6.21,6.21,0,0,0,3.47-2.25,7.2,7.2,0,0,0,1.09-4V45.27c-.63.5-1.33,1.1-1.9,1.57-2,1.72-4.8,4-7.68,5.08-2.52.92-5.12.91-7.38-1.21l3.93-4.55c2.23,2.09,4.59.54,9.1-3.31,2.89-2.5,6.49-5.65,9-3.55l-.08.11V61.32A14.12,14.12,0,0,1,36.51,69.68Zm-.1-35.94c-2,.84-3.69-.23-3.69-2.39a6.58,6.58,0,0,1,3.69-5.53c2-.9,3.69.17,3.69,2.38A6.46,6.46,0,0,1,36.41,33.74Z"/></svg>