<svg width="49" height="49" viewBox="0 0 49 49" fill="none" xmlns="http://www.w3.org/2000/svg">
<path d="M43.75 0H5.25C2.35156 0 0 2.35156 0 5.25V43.75C0 46.6484 2.35156 49 5.25 49H43.75C46.6484 49 49 46.6484 49 43.75V5.25C49 2.35156 46.6484 0 43.75 0ZM10.2812 42C9.51562 42 8.84844 41.4641 8.68438 40.7312L7.04375 33.6219C6.86875 32.8453 7.2625 32.0578 7.99531 31.7406L15.6516 28.4594C16.3188 28.175 17.1063 28.3609 17.5656 28.9297L20.9563 33.075C26.3047 30.5594 30.6141 26.1953 33.075 20.9563L28.9297 17.5656C28.3609 17.1063 28.175 16.3188 28.4594 15.6516L31.7406 7.99531C32.0578 7.2625 32.8453 6.86875 33.6219 7.04375L40.7312 8.68438C41.475 8.85938 42 9.51562 42 10.2812C42 27.8141 27.7922 42 10.2812 42Z" fill="#163240"/>
</svg>
